<?xml version="1.0" encoding="UTF-8"?>
<svg xmlns="http://www.w3.org/2000/svg" xmlns:xlink="http://www.w3.org/1999/xlink" width="1000" height="1000" viewBox="0 0 1000 1000">
<path fill-rule="nonzero" fill="rgb(3.921569%, 5.490196%, 7.843137%)" fill-opacity="1" d="M 0 130 C 0 58.203125 58.203125 0 130 0 L 870 0 C 941.796875 0 1000 58.203125 1000 130 L 1000 870 C 1000 941.796875 941.796875 1000 870 1000 L 130 1000 C 58.203125 1000 0 941.796875 0 870 Z M 0 130 "/>
<path fill-rule="nonzero" fill="rgb(100%, 100%, 100%)" fill-opacity="0.025" d="M 104 100 C 104 105.332031 96 105.332031 96 100 C 96 94.667969 104 94.667969 104 100 "/>
<path fill-rule="nonzero" fill="rgb(100%, 100%, 100%)" fill-opacity="0.025" d="M 104 230 C 104 235.332031 96 235.332031 96 230 C 96 224.667969 104 224.667969 104 230 "/>
<path fill-rule="nonzero" fill="rgb(100%, 100%, 100%)" fill-opacity="0.025" d="M 104 360 C 104 365.332031 96 365.332031 96 360 C 96 354.667969 104 354.667969 104 360 "/>
<path fill-rule="nonzero" fill="rgb(100%, 100%, 100%)" fill-opacity="0.025" d="M 104 490 C 104 495.332031 96 495.332031 96 490 C 96 484.667969 104 484.667969 104 490 "/>
<path fill-rule="nonzero" fill="rgb(100%, 100%, 100%)" fill-opacity="0.025" d="M 104 620 C 104 625.332031 96 625.332031 96 620 C 96 614.667969 104 614.667969 104 620 "/>
<path fill-rule="nonzero" fill="rgb(100%, 100%, 100%)" fill-opacity="0.025" d="M 104 750 C 104 755.332031 96 755.332031 96 750 C 96 744.667969 104 744.667969 104 750 "/>
<path fill-rule="nonzero" fill="rgb(100%, 100%, 100%)" fill-opacity="0.025" d="M 104 880 C 104 885.332031 96 885.332031 96 880 C 96 874.667969 104 874.667969 104 880 "/>
<path fill-rule="nonzero" fill="rgb(100%, 100%, 100%)" fill-opacity="0.025" d="M 234 100 C 234 105.332031 226 105.332031 226 100 C 226 94.667969 234 94.667969 234 100 "/>
<path fill-rule="nonzero" fill="rgb(100%, 100%, 100%)" fill-opacity="0.025" d="M 234 230 C 234 235.332031 226 235.332031 226 230 C 226 224.667969 234 224.667969 234 230 "/>
<path fill-rule="nonzero" fill="rgb(100%, 100%, 100%)" fill-opacity="0.025" d="M 234 360 C 234 365.332031 226 365.332031 226 360 C 226 354.667969 234 354.667969 234 360 "/>
<path fill-rule="nonzero" fill="rgb(100%, 100%, 100%)" fill-opacity="0.025" d="M 234 490 C 234 495.332031 226 495.332031 226 490 C 226 484.667969 234 484.667969 234 490 "/>
<path fill-rule="nonzero" fill="rgb(100%, 100%, 100%)" fill-opacity="0.025" d="M 234 620 C 234 625.332031 226 625.332031 226 620 C 226 614.667969 234 614.667969 234 620 "/>
<path fill-rule="nonzero" fill="rgb(100%, 100%, 100%)" fill-opacity="0.025" d="M 234 750 C 234 755.332031 226 755.332031 226 750 C 226 744.667969 234 744.667969 234 750 "/>
<path fill-rule="nonzero" fill="rgb(100%, 100%, 100%)" fill-opacity="0.025" d="M 234 880 C 234 885.332031 226 885.332031 226 880 C 226 874.667969 234 874.667969 234 880 "/>
<path fill-rule="nonzero" fill="rgb(100%, 100%, 100%)" fill-opacity="0.025" d="M 364 100 C 364 105.332031 356 105.332031 356 100 C 356 94.667969 364 94.667969 364 100 "/>
<path fill-rule="nonzero" fill="rgb(100%, 100%, 100%)" fill-opacity="0.025" d="M 364 230 C 364 235.332031 356 235.332031 356 230 C 356 224.667969 364 224.667969 364 230 "/>
<path fill-rule="nonzero" fill="rgb(100%, 100%, 100%)" fill-opacity="0.025" d="M 364 360 C 364 365.332031 356 365.332031 356 360 C 356 354.667969 364 354.667969 364 360 "/>
<path fill-rule="nonzero" fill="rgb(100%, 100%, 100%)" fill-opacity="0.025" d="M 364 490 C 364 495.332031 356 495.332031 356 490 C 356 484.667969 364 484.667969 364 490 "/>
<path fill-rule="nonzero" fill="rgb(100%, 100%, 100%)" fill-opacity="0.025" d="M 364 620 C 364 625.332031 356 625.332031 356 620 C 356 614.667969 364 614.667969 364 620 "/>
<path fill-rule="nonzero" fill="rgb(100%, 100%, 100%)" fill-opacity="0.025" d="M 364 750 C 364 755.332031 356 755.332031 356 750 C 356 744.667969 364 744.667969 364 750 "/>
<path fill-rule="nonzero" fill="rgb(100%, 100%, 100%)" fill-opacity="0.025" d="M 364 880 C 364 885.332031 356 885.332031 356 880 C 356 874.667969 364 874.667969 364 880 "/>
<path fill-rule="nonzero" fill="rgb(100%, 100%, 100%)" fill-opacity="0.025" d="M 494 100 C 494 105.332031 486 105.332031 486 100 C 486 94.667969 494 94.667969 494 100 "/>
<path fill-rule="nonzero" fill="rgb(100%, 100%, 100%)" fill-opacity="0.025" d="M 494 230 C 494 235.332031 486 235.332031 486 230 C 486 224.667969 494 224.667969 494 230 "/>
<path fill-rule="nonzero" fill="rgb(100%, 100%, 100%)" fill-opacity="0.025" d="M 494 360 C 494 365.332031 486 365.332031 486 360 C 486 354.667969 494 354.667969 494 360 "/>
<path fill-rule="nonzero" fill="rgb(100%, 100%, 100%)" fill-opacity="0.025" d="M 494 490 C 494 495.332031 486 495.332031 486 490 C 486 484.667969 494 484.667969 494 490 "/>
<path fill-rule="nonzero" fill="rgb(100%, 100%, 100%)" fill-opacity="0.025" d="M 494 620 C 494 625.332031 486 625.332031 486 620 C 486 614.667969 494 614.667969 494 620 "/>
<path fill-rule="nonzero" fill="rgb(100%, 100%, 100%)" fill-opacity="0.025" d="M 494 750 C 494 755.332031 486 755.332031 486 750 C 486 744.667969 494 744.667969 494 750 "/>
<path fill-rule="nonzero" fill="rgb(100%, 100%, 100%)" fill-opacity="0.025" d="M 494 880 C 494 885.332031 486 885.332031 486 880 C 486 874.667969 494 874.667969 494 880 "/>
<path fill-rule="nonzero" fill="rgb(100%, 100%, 100%)" fill-opacity="0.025" d="M 624 100 C 624 105.332031 616 105.332031 616 100 C 616 94.667969 624 94.667969 624 100 "/>
<path fill-rule="nonzero" fill="rgb(100%, 100%, 100%)" fill-opacity="0.025" d="M 624 230 C 624 235.332031 616 235.332031 616 230 C 616 224.667969 624 224.667969 624 230 "/>
<path fill-rule="nonzero" fill="rgb(100%, 100%, 100%)" fill-opacity="0.025" d="M 624 360 C 624 365.332031 616 365.332031 616 360 C 616 354.667969 624 354.667969 624 360 "/>
<path fill-rule="nonzero" fill="rgb(100%, 100%, 100%)" fill-opacity="0.025" d="M 624 490 C 624 495.332031 616 495.332031 616 490 C 616 484.667969 624 484.667969 624 490 "/>
<path fill-rule="nonzero" fill="rgb(100%, 100%, 100%)" fill-opacity="0.025" d="M 624 620 C 624 625.332031 616 625.332031 616 620 C 616 614.667969 624 614.667969 624 620 "/>
<path fill-rule="nonzero" fill="rgb(100%, 100%, 100%)" fill-opacity="0.025" d="M 624 750 C 624 755.332031 616 755.332031 616 750 C 616 744.667969 624 744.667969 624 750 "/>
<path fill-rule="nonzero" fill="rgb(100%, 100%, 100%)" fill-opacity="0.025" d="M 624 880 C 624 885.332031 616 885.332031 616 880 C 616 874.667969 624 874.667969 624 880 "/>
<path fill-rule="nonzero" fill="rgb(100%, 100%, 100%)" fill-opacity="0.025" d="M 754 100 C 754 105.332031 746 105.332031 746 100 C 746 94.667969 754 94.667969 754 100 "/>
<path fill-rule="nonzero" fill="rgb(100%, 100%, 100%)" fill-opacity="0.025" d="M 754 230 C 754 235.332031 746 235.332031 746 230 C 746 224.667969 754 224.667969 754 230 "/>
<path fill-rule="nonzero" fill="rgb(100%, 100%, 100%)" fill-opacity="0.025" d="M 754 360 C 754 365.332031 746 365.332031 746 360 C 746 354.667969 754 354.667969 754 360 "/>
<path fill-rule="nonzero" fill="rgb(100%, 100%, 100%)" fill-opacity="0.025" d="M 754 490 C 754 495.332031 746 495.332031 746 490 C 746 484.667969 754 484.667969 754 490 "/>
<path fill-rule="nonzero" fill="rgb(100%, 100%, 100%)" fill-opacity="0.025" d="M 754 620 C 754 625.332031 746 625.332031 746 620 C 746 614.667969 754 614.667969 754 620 "/>
<path fill-rule="nonzero" fill="rgb(100%, 100%, 100%)" fill-opacity="0.025" d="M 754 750 C 754 755.332031 746 755.332031 746 750 C 746 744.667969 754 744.667969 754 750 "/>
<path fill-rule="nonzero" fill="rgb(100%, 100%, 100%)" fill-opacity="0.025" d="M 754 880 C 754 885.332031 746 885.332031 746 880 C 746 874.667969 754 874.667969 754 880 "/>
<path fill-rule="nonzero" fill="rgb(100%, 100%, 100%)" fill-opacity="0.025" d="M 884 100 C 884 105.332031 876 105.332031 876 100 C 876 94.667969 884 94.667969 884 100 "/>
<path fill-rule="nonzero" fill="rgb(100%, 100%, 100%)" fill-opacity="0.025" d="M 884 230 C 884 235.332031 876 235.332031 876 230 C 876 224.667969 884 224.667969 884 230 "/>
<path fill-rule="nonzero" fill="rgb(100%, 100%, 100%)" fill-opacity="0.025" d="M 884 360 C 884 365.332031 876 365.332031 876 360 C 876 354.667969 884 354.667969 884 360 "/>
<path fill-rule="nonzero" fill="rgb(100%, 100%, 100%)" fill-opacity="0.025" d="M 884 490 C 884 495.332031 876 495.332031 876 490 C 876 484.667969 884 484.667969 884 490 "/>
<path fill-rule="nonzero" fill="rgb(100%, 100%, 100%)" fill-opacity="0.025" d="M 884 620 C 884 625.332031 876 625.332031 876 620 C 876 614.667969 884 614.667969 884 620 "/>
<path fill-rule="nonzero" fill="rgb(100%, 100%, 100%)" fill-opacity="0.025" d="M 884 750 C 884 755.332031 876 755.332031 876 750 C 876 744.667969 884 744.667969 884 750 "/>
<path fill-rule="nonzero" fill="rgb(100%, 100%, 100%)" fill-opacity="0.025" d="M 884 880 C 884 885.332031 876 885.332031 876 880 C 876 874.667969 884 874.667969 884 880 "/>
<path fill="none" stroke-width="2" stroke-linecap="butt" stroke-linejoin="miter" stroke="rgb(10.196078%, 44.705882%, 94.117647%)" stroke-opacity="0.12" stroke-miterlimit="10" d="M 810 400 C 810 571.207031 671.207031 710 500 710 C 328.792969 710 190 571.207031 190 400 C 190 228.792969 328.792969 90 500 90 C 671.207031 90 810 228.792969 810 400 "/>
<path fill="none" stroke-width="2" stroke-linecap="butt" stroke-linejoin="miter" stroke="rgb(10.196078%, 44.705882%, 94.117647%)" stroke-opacity="0.07" stroke-miterlimit="10" d="M 745 400 C 745 535.308594 635.308594 645 500 645 C 364.691406 645 255 535.308594 255 400 C 255 264.691406 364.691406 155 500 155 C 635.308594 155 745 264.691406 745 400 "/>
<path fill="none" stroke-width="3" stroke-linecap="butt" stroke-linejoin="miter" stroke="rgb(10.196078%, 44.705882%, 94.117647%)" stroke-opacity="0.4" stroke-miterlimit="10" d="M 78 118 L 78 78 L 118 78 "/>
<path fill="none" stroke-width="3" stroke-linecap="butt" stroke-linejoin="miter" stroke="rgb(10.196078%, 44.705882%, 94.117647%)" stroke-opacity="0.4" stroke-miterlimit="10" d="M 922 118 L 922 78 L 882 78 "/>
<path fill="none" stroke-width="3" stroke-linecap="butt" stroke-linejoin="miter" stroke="rgb(10.196078%, 44.705882%, 94.117647%)" stroke-opacity="0.4" stroke-miterlimit="10" d="M 78 882 L 78 922 L 118 922 "/>
<path fill="none" stroke-width="3" stroke-linecap="butt" stroke-linejoin="miter" stroke="rgb(10.196078%, 44.705882%, 94.117647%)" stroke-opacity="0.4" stroke-miterlimit="10" d="M 922 882 L 922 922 L 882 922 "/>
<path fill-rule="nonzero" fill="rgb(5.882353%, 30.980392%, 66.666667%)" fill-opacity="1" d="M 293 336 C 293 326.058594 301.058594 318 311 318 L 695 318 C 704.941406 318 713 326.058594 713 336 L 713 570 C 713 579.941406 704.941406 588 695 588 L 311 588 C 301.058594 588 293 579.941406 293 570 Z M 293 336 "/>
<path fill-rule="nonzero" fill="rgb(8.235294%, 37.647059%, 78.431373%)" fill-opacity="1" d="M 293 318 C 293 290 293 290 315 290 L 418 290 C 444 290 454 290 460 318 Z M 293 318 "/>
<path fill-rule="nonzero" fill="rgb(0%, 0%, 0%)" fill-opacity="0.16" d="M 502 211 C 502 206.03125 506.03125 202 511 202 L 538 202 C 542.96875 202 547 206.03125 547 211 L 547 330 C 547 334.96875 542.96875 339 538 339 L 511 339 C 506.03125 339 502 334.96875 502 330 Z M 502 211 "/>
<path fill-rule="nonzero" fill="rgb(21.960784%, 74.117647%, 97.254902%)" fill-opacity="1" d="M 498 204 C 498 199.03125 502.03125 195 507 195 L 534 195 C 538.96875 195 543 199.03125 543 204 L 543 323 C 543 327.96875 538.96875 332 534 332 L 507 332 C 502.03125 332 498 327.96875 498 323 Z M 498 204 "/>
<path fill-rule="nonzero" fill="rgb(100%, 100%, 100%)" fill-opacity="0.2" d="M 503 207 C 503 203.132812 506.132812 200 510 200 L 531 200 C 534.867188 200 538 203.132812 538 207 L 538 231.359375 C 538 235.226562 534.867188 238.359375 531 238.359375 L 510 238.359375 C 506.132812 238.359375 503 235.226562 503 231.359375 Z M 503 207 "/>
<path fill-rule="nonzero" fill="rgb(0%, 0%, 0%)" fill-opacity="0.16" d="M 448 228 C 448 223.03125 452.03125 219 457 219 L 484 219 C 488.96875 219 493 223.03125 493 228 L 493 330 C 493 334.96875 488.96875 339 484 339 L 457 339 C 452.03125 339 448 334.96875 448 330 Z M 448 228 "/>
<path fill-rule="nonzero" fill="rgb(98.431373%, 44.313725%, 52.156863%)" fill-opacity="1" d="M 444 221 C 444 216.03125 448.03125 212 453 212 L 480 212 C 484.96875 212 489 216.03125 489 221 L 489 323 C 489 327.96875 484.96875 332 480 332 L 453 332 C 448.03125 332 444 327.96875 444 323 Z M 444 221 "/>
<path fill-rule="nonzero" fill="rgb(100%, 100%, 100%)" fill-opacity="0.2" d="M 449 224 C 449 220.132812 452.132812 217 456 217 L 477 217 C 480.867188 217 484 220.132812 484 224 L 484 243.601562 C 484 247.464844 480.867188 250.601562 477 250.601562 L 456 250.601562 C 452.132812 250.601562 449 247.464844 449 243.601562 Z M 449 224 "/>
<path fill-rule="nonzero" fill="rgb(0%, 0%, 0%)" fill-opacity="0.16" d="M 394 243 C 394 238.03125 398.03125 234 403 234 L 430 234 C 434.96875 234 439 238.03125 439 243 L 439 330 C 439 334.96875 434.96875 339 430 339 L 403 339 C 398.03125 339 394 334.96875 394 330 Z M 394 243 "/>
<path fill-rule="nonzero" fill="rgb(65.490196%, 54.509804%, 98.039216%)" fill-opacity="1" d="M 390 236 C 390 231.03125 394.03125 227 399 227 L 426 227 C 430.96875 227 435 231.03125 435 236 L 435 323 C 435 327.96875 430.96875 332 426 332 L 399 332 C 394.03125 332 390 327.96875 390 323 Z M 390 236 "/>
<path fill-rule="nonzero" fill="rgb(100%, 100%, 100%)" fill-opacity="0.2" d="M 395 239 C 395 235.132812 398.132812 232 402 232 L 423 232 C 426.867188 232 430 235.132812 430 239 L 430 254.398438 C 430 258.265625 426.867188 261.398438 423 261.398438 L 402 261.398438 C 398.132812 261.398438 395 258.265625 395 254.398438 Z M 395 239 "/>
<path fill-rule="nonzero" fill="rgb(0%, 0%, 0%)" fill-opacity="0.16" d="M 340 256 C 340 251.03125 344.03125 247 349 247 L 376 247 C 380.96875 247 385 251.03125 385 256 L 385 330 C 385 334.96875 380.96875 339 376 339 L 349 339 C 344.03125 339 340 334.96875 340 330 Z M 340 256 "/>
<path fill-rule="nonzero" fill="rgb(20.392157%, 82.745098%, 60%)" fill-opacity="1" d="M 336 249 C 336 244.03125 340.03125 240 345 240 L 372 240 C 376.96875 240 381 244.03125 381 249 L 381 323 C 381 327.96875 376.96875 332 372 332 L 345 332 C 340.03125 332 336 327.96875 336 323 Z M 336 249 "/>
<path fill-rule="nonzero" fill="rgb(100%, 100%, 100%)" fill-opacity="0.2" d="M 341 252 C 341 248.132812 344.132812 245 348 245 L 369 245 C 372.867188 245 376 248.132812 376 252 L 376 263.761719 C 376 267.625 372.867188 270.761719 369 270.761719 L 348 270.761719 C 344.132812 270.761719 341 267.625 341 263.761719 Z M 341 252 "/>
<path fill-rule="nonzero" fill="rgb(10.196078%, 44.705882%, 94.117647%)" fill-opacity="1" d="M 280 360 C 280 350.058594 288.058594 342 298 342 L 702 342 C 711.941406 342 720 350.058594 720 360 L 720 582 C 720 591.941406 711.941406 600 702 600 L 298 600 C 288.058594 600 280 591.941406 280 582 Z M 280 360 "/>
<path fill-rule="nonzero" fill="rgb(35.686275%, 65.882353%, 100%)" fill-opacity="0.11" d="M 280 360 C 280 350.058594 288.058594 342 298 342 L 702 342 C 711.941406 342 720 350.058594 720 360 L 720 376 C 720 385.941406 711.941406 394 702 394 L 298 394 C 288.058594 394 280 385.941406 280 376 Z M 280 360 "/>
<path fill="none" stroke-width="2.5" stroke-linecap="butt" stroke-linejoin="miter" stroke="rgb(100%, 100%, 100%)" stroke-opacity="0.2" stroke-miterlimit="10" d="M 302 344 L 698 344 "/>
<path fill-rule="nonzero" fill="rgb(100%, 100%, 100%)" fill-opacity="0.92" d="M 354 415.5 C 354 410.253906 358.253906 406 363.5 406 L 532.5 406 C 537.746094 406 542 410.253906 542 415.5 C 542 420.746094 537.746094 425 532.5 425 L 363.5 425 C 358.253906 425 354 420.746094 354 415.5 Z M 354 415.5 "/>
<path fill-rule="nonzero" fill="rgb(100%, 100%, 100%)" fill-opacity="0.6" d="M 374 447.5 C 374 442.253906 378.253906 438 383.5 438 L 504.5 438 C 509.746094 438 514 442.253906 514 447.5 C 514 452.746094 509.746094 457 504.5 457 L 383.5 457 C 378.253906 457 374 452.746094 374 447.5 Z M 374 447.5 "/>
<path fill-rule="nonzero" fill="rgb(100%, 100%, 100%)" fill-opacity="0.34" d="M 398 479.5 C 398 474.253906 402.253906 470 407.5 470 L 478.5 470 C 483.746094 470 488 474.253906 488 479.5 C 488 484.746094 483.746094 489 478.5 489 L 407.5 489 C 402.253906 489 398 484.746094 398 479.5 Z M 398 479.5 "/>
<path fill-rule="nonzero" fill="rgb(98.431373%, 74.901961%, 14.117647%)" fill-opacity="1" d="M 583 406 L 616 406 L 599 430 Z M 583 406 "/>
<path fill-rule="nonzero" fill="rgb(98.431373%, 74.901961%, 14.117647%)" fill-opacity="0.45" d="M 583 438 L 616 438 L 599 460 Z M 583 438 "/>
<path fill-rule="nonzero" fill="rgb(98.431373%, 74.901961%, 14.117647%)" fill-opacity="0.85" d="M 670 268 C 674 273 698 268 698 268 C 698 268 674 263 670 268 Z M 670 268 "/>
<path fill-rule="nonzero" fill="rgb(98.431373%, 74.901961%, 14.117647%)" fill-opacity="0.85" d="M 670 268 C 665 272 670 296 670 296 C 670 296 675 272 670 268 Z M 670 268 "/>
<path fill-rule="nonzero" fill="rgb(98.431373%, 74.901961%, 14.117647%)" fill-opacity="0.85" d="M 670 268 C 666 263 642 268 642 268 C 642 268 666 273 670 268 Z M 670 268 "/>
<path fill-rule="nonzero" fill="rgb(98.431373%, 74.901961%, 14.117647%)" fill-opacity="0.85" d="M 670 268 C 675 264 670 240 670 240 C 670 240 665 264 670 268 Z M 670 268 "/>
<path fill-rule="nonzero" fill="rgb(98.431373%, 74.901961%, 14.117647%)" fill-opacity="1" d="M 675 268 C 675 274.667969 665 274.667969 665 268 C 665 261.332031 675 261.332031 675 268 "/>
<path fill-rule="nonzero" fill="rgb(98.431373%, 74.901961%, 14.117647%)" fill-opacity="0.5" d="M 320 218 C 320 221 336 218 336 218 C 336 218 320 215 320 218 Z M 320 218 "/>
<path fill-rule="nonzero" fill="rgb(98.431373%, 74.901961%, 14.117647%)" fill-opacity="0.5" d="M 320 218 C 317 218 320 234 320 234 C 320 234 323 218 320 218 Z M 320 218 "/>
<path fill-rule="nonzero" fill="rgb(98.431373%, 74.901961%, 14.117647%)" fill-opacity="0.5" d="M 320 218 C 320 215 304 218 304 218 C 304 218 320 221 320 218 Z M 320 218 "/>
<path fill-rule="nonzero" fill="rgb(98.431373%, 74.901961%, 14.117647%)" fill-opacity="0.5" d="M 320 218 C 323 218 320 202 320 202 C 320 202 317 218 320 218 Z M 320 218 "/>
</svg>
